<?xml version="1.0" encoding="UTF-8"?>
<!DOCTYPE svg PUBLIC "-//W3C//DTD SVG 1.1//EN" "http://www.w3.org/Graphics/SVG/1.1/DTD/svg11.dtd">
<svg xmlns="http://www.w3.org/2000/svg" version="1.1" width="500px" height="500px" style="shape-rendering:geometricPrecision; text-rendering:geometricPrecision; image-rendering:optimizeQuality; fill-rule:evenodd; clip-rule:evenodd" xmlns:xlink="http://www.w3.org/1999/xlink">
<g><path style="opacity:0.055" fill="#fbfdfc" d="M 145.5,126.5 C 151.105,125.908 156.439,126.741 161.5,129C 164.914,133.133 165.247,137.466 162.5,142C 159.606,144.375 156.772,146.875 154,149.5C 152.531,155.949 153.864,161.616 158,166.5C 159.518,164.652 161.351,163.152 163.5,162C 167.93,160.781 172.43,159.947 177,159.5C 183.859,159.69 190.693,159.69 197.5,159.5C 205.151,160.833 212.818,161.166 220.5,160.5C 226.211,160.605 231.378,162.271 236,165.5C 237.653,165.18 238.653,164.18 239,162.5C 240.518,157.189 241.852,151.855 243,146.5C 244.214,144.951 245.714,143.785 247.5,143C 252.354,142.38 257.187,142.547 262,143.5C 266.014,142.571 269.847,141.238 273.5,139.5C 276.25,140.402 278.917,141.569 281.5,143C 287.914,143.129 294.247,143.796 300.5,145C 302.186,152.358 303.186,159.858 303.5,167.5C 302.248,183.834 302.248,200.167 303.5,216.5C 311.519,218.175 315.519,223.175 315.5,231.5C 322.389,232.183 329.222,232.85 336,233.5C 340.406,232.317 344.74,232.651 349,234.5C 350.487,232.728 350.82,230.728 350,228.5C 348,226.5 346,224.5 344,222.5C 343.48,220.711 343.813,219.044 345,217.5C 351.87,211.934 359.703,210.1 368.5,212C 371.728,213.563 373.895,216.063 375,219.5C 375.499,224.155 375.666,228.821 375.5,233.5C 382.468,232.804 389.134,233.804 395.5,236.5C 403.001,233.766 410.667,232.266 418.5,232C 432.251,235.751 439.251,244.751 439.5,259C 438.106,279.067 427.439,288.4 407.5,287C 403.177,285.228 398.677,284.061 394,283.5C 388.785,289.401 382.285,292.734 374.5,293.5C 370.165,294.167 367.165,292.501 365.5,288.5C 360.89,287.825 356.39,286.825 352,285.5C 345.106,292.019 336.939,294.519 327.5,293C 326.695,291.028 325.361,289.528 323.5,288.5C 320.065,287.509 316.565,286.843 313,286.5C 275.28,286.927 237.613,287.26 200,287.5C 195.269,287.552 190.769,286.552 186.5,284.5C 177.114,288.137 167.614,288.47 158,285.5C 154.68,286.168 151.513,287.335 148.5,289C 147.222,293.213 144.556,296.213 140.5,298C 132.447,301.245 124.447,301.245 116.5,298C 112.167,293.667 107.833,289.333 103.5,285C 99.8249,284.087 96.4916,284.753 93.5,287C 88.1667,287.667 82.8333,287.667 77.5,287C 75.4299,286.052 73.9299,284.552 73,282.5C 72.7618,274.403 71.7618,266.403 70,258.5C 65.3441,254.671 60.3441,251.337 55,248.5C 50.8333,240.664 50.4999,232.664 54,224.5C 55.7574,221.316 57.2574,217.982 58.5,214.5C 56.1282,205.175 58.4616,197.341 65.5,191C 64.8977,186.439 63.8977,181.939 62.5,177.5C 59.5885,156.037 68.9218,143.37 90.5,139.5C 100.111,139.802 107.444,143.968 112.5,152C 114.754,153.15 117.087,153.484 119.5,153C 124.312,147.519 129.145,142.019 134,136.5C 137.438,132.559 141.271,129.225 145.5,126.5 Z M 290.5,161.5 C 286.71,163.268 286.71,165.101 290.5,167C 290.167,167.333 289.833,167.667 289.5,168C 285.142,168.788 280.809,169.622 276.5,170.5C 269.969,170.115 263.303,169.782 256.5,169.5C 256.481,167.94 256.148,166.44 255.5,165C 255.8,162.976 256.633,162.476 258,163.5C 268.167,159.938 278.667,158.771 289.5,160C 290.056,160.383 290.389,160.883 290.5,161.5 Z M 290.5,161.5 C 292.273,162.314 292.773,163.648 292,165.5C 291.209,164.255 290.709,162.922 290.5,161.5 Z M 238.5,187.5 C 240.547,190.902 240.881,194.569 239.5,198.5C 238.264,197.754 236.93,197.421 235.5,197.5C 235.022,193.662 236.022,190.329 238.5,187.5 Z M 283.5,189.5 C 287.893,189.457 288.226,189.957 284.5,191C 287.007,191.093 289.174,191.926 291,193.5C 291.333,193.167 291.667,192.833 292,192.5C 292.809,198.749 292.642,204.916 291.5,211C 278.838,211.5 266.171,211.667 253.5,211.5C 253.334,205.491 253.501,199.491 254,193.5C 257.523,190.282 261.356,189.782 265.5,192C 270.167,192.667 274.833,192.667 279.5,192C 281.066,191.392 282.4,190.558 283.5,189.5 Z M 104.5,203.5 C 111.52,203.901 118.52,204.568 125.5,205.5C 127.085,214.04 131.919,219.707 140,222.5C 145.218,220.651 150.551,218.984 156,217.5C 162.606,220.176 169.44,221.009 176.5,220C 179.838,218.08 183.338,216.58 187,215.5C 193.677,218.003 200.51,220.003 207.5,221.5C 214.934,218.362 220.934,220.195 225.5,227C 224.833,228 224.167,229 223.5,230C 211.846,231.027 200.179,231.861 188.5,232.5C 173.544,230.964 158.544,229.964 143.5,229.5C 139.204,229.949 135.037,230.949 131,232.5C 126.233,229.73 122.9,225.73 121,220.5C 119.5,219 118,217.5 116.5,216C 111.9,213.785 107.734,210.952 104,207.5C 103.805,206.181 103.972,204.847 104.5,203.5 Z M 243.5,210.5 C 244.391,211.261 245.058,212.261 245.5,213.5C 242.994,216.777 242.994,219.944 245.5,223C 258.835,222.834 272.169,222.834 285.5,223C 286.833,223.333 288.167,223.667 289.5,224C 288.833,224.333 288.167,224.667 287.5,225C 288.406,226.699 288.739,228.533 288.5,230.5C 268.069,231.743 247.736,231.743 227.5,230.5C 229.554,221.122 234.887,214.456 243.5,210.5 Z"/></g>
<g><path style="opacity:0.883" fill="#9fb8a6" d="M 277.5,145.5 C 275.407,146.058 273.907,147.391 273,149.5C 272.275,147.842 271.108,147.342 269.5,148C 268.915,149.302 268.249,150.469 267.5,151.5C 266.432,150.566 265.099,150.232 263.5,150.5C 263.5,149.5 263.5,148.5 263.5,147.5C 260.918,146.436 256.251,146.103 249.5,146.5C 255.987,145.672 262.654,145.172 269.5,145C 272.504,141.595 275.171,141.762 277.5,145.5 Z"/></g>
<g><path style="opacity:0.952" fill="#a9d6b2" d="M 277.5,145.5 C 278.609,145.557 279.609,145.89 280.5,146.5C 282.229,147.236 283.229,148.57 283.5,150.5C 282.022,150.238 280.689,150.571 279.5,151.5C 281.766,152.314 284.1,152.814 286.5,153C 287.056,153.383 287.389,153.883 287.5,154.5C 278.167,154.5 268.833,154.5 259.5,154.5C 259.611,153.883 259.944,153.383 260.5,153C 262.92,152.71 265.254,152.21 267.5,151.5C 268.249,150.469 268.915,149.302 269.5,148C 271.108,147.342 272.275,147.842 273,149.5C 273.907,147.391 275.407,146.058 277.5,145.5 Z"/></g>
<g><path style="opacity:0.968" fill="#797597" d="M 249.5,146.5 C 256.251,146.103 260.918,146.436 263.5,147.5C 263.5,148.5 263.5,149.5 263.5,150.5C 263.167,150.5 262.833,150.5 262.5,150.5C 258.702,149.517 254.702,149.183 250.5,149.5C 250.333,171.169 250.5,192.836 251,214.5C 265.931,215.83 280.765,215.83 295.5,214.5C 296.497,193.34 296.831,172.007 296.5,150.5C 292.167,150.5 287.833,150.5 283.5,150.5C 283.229,148.57 282.229,147.236 280.5,146.5C 286.758,146.19 292.924,146.524 299,147.5C 299.667,170.833 299.667,194.167 299,217.5C 290.732,218.818 282.232,219.484 273.5,219.5C 264.925,219.493 256.425,219.16 248,218.5C 247.333,194.833 247.333,171.167 248,147.5C 248.383,146.944 248.883,146.611 249.5,146.5 Z M 290.5,161.5 C 290.389,160.883 290.056,160.383 289.5,160C 278.667,158.771 268.167,159.938 258,163.5C 256.633,162.476 255.8,162.976 255.5,165C 256.148,166.44 256.481,167.94 256.5,169.5C 263.303,169.782 269.969,170.115 276.5,170.5C 280.809,169.622 285.142,168.788 289.5,168C 289.833,167.667 290.167,167.333 290.5,167C 286.71,165.101 286.71,163.268 290.5,161.5 Z M 290.5,161.5 C 290.709,162.922 291.209,164.255 292,165.5C 292.773,163.648 292.273,162.314 290.5,161.5 Z M 283.5,189.5 C 282.4,190.558 281.066,191.392 279.5,192C 274.833,192.667 270.167,192.667 265.5,192C 261.356,189.782 257.523,190.282 254,193.5C 253.501,199.491 253.334,205.491 253.5,211.5C 266.171,211.667 278.838,211.5 291.5,211C 292.642,204.916 292.809,198.749 292,192.5C 291.667,192.833 291.333,193.167 291,193.5C 289.174,191.926 287.007,191.093 284.5,191C 288.226,189.957 287.893,189.457 283.5,189.5 Z"/></g>
<g><path style="opacity:0.097" fill="#f8f7f6" d="M 262.5,150.5 C 262.833,150.5 263.167,150.5 263.5,150.5C 265.099,150.232 266.432,150.566 267.5,151.5C 265.254,152.21 262.92,152.71 260.5,153C 259.944,153.383 259.611,153.883 259.5,154.5C 258.957,154.56 258.624,154.893 258.5,155.5C 268.5,156.833 278.5,156.833 288.5,155.5C 288.376,154.893 288.043,154.56 287.5,154.5C 287.389,153.883 287.056,153.383 286.5,153C 284.1,152.814 281.766,152.314 279.5,151.5C 280.689,150.571 282.022,150.238 283.5,150.5C 287.833,150.5 292.167,150.5 296.5,150.5C 296.831,172.007 296.497,193.34 295.5,214.5C 280.798,214.784 266.131,214.45 251.5,213.5C 251.5,192.5 251.5,171.5 251.5,150.5C 255.167,150.5 258.833,150.5 262.5,150.5 Z M 290.5,161.5 C 290.389,160.883 290.056,160.383 289.5,160C 278.667,158.771 268.167,159.938 258,163.5C 256.633,162.476 255.8,162.976 255.5,165C 256.148,166.44 256.481,167.94 256.5,169.5C 263.303,169.782 269.969,170.115 276.5,170.5C 280.809,169.622 285.142,168.788 289.5,168C 289.833,167.667 290.167,167.333 290.5,167C 286.71,165.101 286.71,163.268 290.5,161.5 Z M 290.5,161.5 C 290.709,162.922 291.209,164.255 292,165.5C 292.773,163.648 292.273,162.314 290.5,161.5 Z M 283.5,189.5 C 282.4,190.558 281.066,191.392 279.5,192C 274.833,192.667 270.167,192.667 265.5,192C 261.356,189.782 257.523,190.282 254,193.5C 253.501,199.491 253.334,205.491 253.5,211.5C 266.171,211.667 278.838,211.5 291.5,211C 292.642,204.916 292.809,198.749 292,192.5C 291.667,192.833 291.333,193.167 291,193.5C 289.174,191.926 287.007,191.093 284.5,191C 288.226,189.957 287.893,189.457 283.5,189.5 Z"/></g>
<g><path style="opacity:0.549" fill="#c3c3c4" d="M 262.5,150.5 C 258.833,150.5 255.167,150.5 251.5,150.5C 251.5,171.5 251.5,192.5 251.5,213.5C 266.131,214.45 280.798,214.784 295.5,214.5C 280.765,215.83 265.931,215.83 251,214.5C 250.5,192.836 250.333,171.169 250.5,149.5C 254.702,149.183 258.702,149.517 262.5,150.5 Z"/></g>
<g><path style="opacity:0.731" fill="#838e86" d="M 259.5,154.5 C 268.833,154.5 278.167,154.5 287.5,154.5C 288.043,154.56 288.376,154.893 288.5,155.5C 278.5,156.833 268.5,156.833 258.5,155.5C 258.624,154.893 258.957,154.56 259.5,154.5 Z"/></g>
<g><path style="opacity:0.678" fill="#b0dab5" d="M 149.5,129.5 C 160.289,128.914 163.289,133.247 158.5,142.5C 155.099,143.886 152.599,142.886 151,139.5C 148.667,140.5 147,142.167 146,144.5C 146.512,158.509 147.512,172.509 149,186.5C 153.354,170.25 163.854,162.75 180.5,164C 182.746,165.039 184.913,166.206 187,167.5C 192.034,163.1 197.534,162.433 203.5,165.5C 204.861,167.028 206.028,168.695 207,170.5C 214.075,162.072 221.741,161.405 230,168.5C 230.168,178.849 230.668,189.183 231.5,199.5C 233.5,200.833 235.167,202.5 236.5,204.5C 230.388,215.039 222.221,217.039 212,210.5C 203.274,216.702 195.607,215.702 189,207.5C 179.109,215.729 168.776,216.396 158,209.5C 152.232,212.817 146.065,214.317 139.5,214C 135.98,213.496 133.48,211.663 132,208.5C 129.825,198.6 128.158,188.6 127,178.5C 123.67,184.998 120.837,191.665 118.5,198.5C 115.482,198.665 112.482,198.498 109.5,198C 106.367,192.038 103.033,186.205 99.5,180.5C 98.8265,187.584 97.6598,194.584 96,201.5C 89.1191,213.341 79.2858,216.841 66.5,212C 61.6584,208.306 61.3251,204.306 65.5,200C 67.0444,198.813 68.7111,198.48 70.5,199C 72.4562,201.63 74.9562,203.463 78,204.5C 81.8614,204.307 84.1947,202.307 85,198.5C 86.8768,190.247 87.5435,181.914 87,173.5C 79.0284,179.297 72.3617,177.964 67,169.5C 65.5721,157.906 70.4055,150.073 81.5,146C 87.4422,144.594 93.4422,144.261 99.5,145C 102.902,146.4 105.736,148.567 108,151.5C 111.333,158.167 114.667,164.833 118,171.5C 124.044,157.228 132.211,144.394 142.5,133C 144.925,131.787 147.259,130.621 149.5,129.5 Z"/></g>
<g><path style="opacity:0.995" fill="#dd3752" d="M 149.5,132.5 C 155.529,131.165 158.196,133.498 157.5,139.5C 155.319,139.716 153.653,138.883 152.5,137C 147.704,137.1 144.538,139.6 143,144.5C 143.574,163.197 144.907,181.864 147,200.5C 146.861,205.495 149.027,207.161 153.5,205.5C 154.711,206.274 154.711,207.107 153.5,208C 148.415,211.28 143.081,211.947 137.5,210C 136.667,209.167 135.833,208.333 135,207.5C 132.399,193.966 130.733,180.299 130,166.5C 124.822,175.523 120.155,184.857 116,194.5C 114.333,195.833 112.667,195.833 111,194.5C 106.333,185.167 101.667,175.833 97,166.5C 95.8275,175.116 95.1608,183.783 95,192.5C 92.3247,208.594 83.1581,214.094 67.5,209C 64.9165,206.213 65.2499,203.713 68.5,201.5C 70.0404,203.387 71.7071,205.22 73.5,207C 82.8279,208.91 87.9946,205.076 89,195.5C 90.8427,181.881 91.5094,168.215 91,154.5C 89.9718,152.484 88.3052,151.484 86,151.5C 79.9844,152.23 76.1511,155.397 74.5,161C 74.3895,163.288 75.3895,164.788 77.5,165.5C 79.5904,163.894 81.9238,163.394 84.5,164C 86.1279,172.031 82.7945,175.031 74.5,173C 70.9158,171.336 69.2492,168.503 69.5,164.5C 70.6943,156.798 75.0276,151.631 82.5,149C 89.3224,146.742 95.9891,147.076 102.5,150C 108.302,159.1 113.469,168.6 118,178.5C 124.159,166.178 130.826,154.178 138,142.5C 141.435,138.555 145.268,135.222 149.5,132.5 Z"/></g>
<g><path style="opacity:0.092" fill="#f6fbf7" d="M 84.5,154.5 C 85.8221,154.33 86.9887,154.663 88,155.5C 88.6667,158.167 88.6667,160.833 88,163.5C 87.1667,162.667 86.3333,161.833 85.5,161C 82.6685,160.788 80.0018,160.621 77.5,160.5C 79.2885,157.7 81.6218,155.7 84.5,154.5 Z"/></g>
<g><path style="opacity:0.998" fill="#dd3651" d="M 171.5,166.5 C 177.265,165.977 182.265,167.644 186.5,171.5C 192.203,165.64 198.036,165.307 204,170.5C 204.333,181.5 204.667,192.5 205,203.5C 208.563,204.684 211.563,203.684 214,200.5C 214.5,191.173 214.666,181.839 214.5,172.5C 213.07,172.421 211.736,172.754 210.5,173.5C 209.494,173.062 209.494,172.396 210.5,171.5C 215.785,165.531 221.285,165.198 227,170.5C 227.5,182.162 227.667,193.829 227.5,205.5C 228.93,205.579 230.264,205.246 231.5,204.5C 232.521,205.002 232.688,205.668 232,206.5C 226.505,212.414 220.839,212.748 215,207.5C 214.667,206.167 214.333,204.833 214,203.5C 209.131,209.871 202.965,212.038 195.5,210C 193.513,208.681 192.346,206.848 192,204.5C 191.667,194.167 191.333,183.833 191,173.5C 190.586,173.043 190.086,172.709 189.5,172.5C 187.8,176.038 185.467,179.205 182.5,182C 176.58,184.781 171.246,188.281 166.5,192.5C 170.145,204.998 177.478,207.998 188.5,201.5C 189.521,202.002 189.688,202.668 189,203.5C 179.483,212.91 169.317,213.743 158.5,206C 150.354,195.018 150.521,184.184 159,173.5C 162.728,170.223 166.895,167.89 171.5,166.5 Z"/></g>
<g><path style="opacity:0.392" fill="#afd8b4" d="M 169.5,171.5 C 174.525,170.695 176.858,172.861 176.5,178C 176.646,180.034 175.98,181.701 174.5,183C 172.167,184.167 169.833,185.333 167.5,186.5C 165.867,181.152 166.534,176.152 169.5,171.5 Z"/></g>
<g><path style="opacity:0.063" fill="#fbfdfc" d="M 171.5,174.5 C 174.387,177.199 174.054,179.533 170.5,181.5C 169.721,179.115 170.054,176.782 171.5,174.5 Z"/></g>
<g><path style="opacity:0.216" fill="#f7fbf8" d="M 207.5,176.5 C 208.721,177.028 209.887,177.695 211,178.5C 211.667,185.167 211.667,191.833 211,198.5C 210,199.5 209,200.5 208,201.5C 207.5,193.173 207.334,184.84 207.5,176.5 Z"/></g>
<g><path style="opacity:0.847" fill="#fad9d7" d="M 283.5,173.5 C 285.199,173.34 286.866,173.506 288.5,174C 287.718,176.74 287.218,179.574 287,182.5C 285.943,180.1 285.276,177.767 285,175.5C 284.814,177.9 284.314,180.234 283.5,182.5C 282.808,181.975 282.308,181.308 282,180.5C 281.692,181.308 281.192,181.975 280.5,182.5C 279.575,181.359 278.741,181.359 278,182.5C 277.126,179.621 277.46,176.955 279,174.5C 279.626,176.991 280.459,176.991 281.5,174.5C 282.987,179.657 283.653,179.324 283.5,173.5 Z"/></g>
<g><path style="opacity:0.069" fill="#fafdfb" d="M 185.5,182.5 C 186.812,184.743 187.478,187.41 187.5,190.5C 188.464,198.695 184.798,202.529 176.5,202C 172.689,199.867 170.855,196.7 171,192.5C 176.287,189.694 181.121,186.36 185.5,182.5 Z"/></g>
<g><path style="opacity:0.878" fill="#94c6b5" d="M 273.5,184.5 C 279.176,184.334 284.843,184.501 290.5,185C 287.833,185.333 285.167,185.667 282.5,186C 281.027,186.71 280.36,187.876 280.5,189.5C 275.936,189.298 271.27,188.965 266.5,188.5C 270.459,187.673 274.459,187.173 278.5,187C 270.833,186.667 263.167,186.333 255.5,186C 261.681,185.828 267.681,185.328 273.5,184.5 Z"/></g>
<g><path style="opacity:0.649" fill="#b0d9b5" d="M 357.5,213.5 C 362.765,212.571 367.265,213.904 371,217.5C 372.26,224.394 372.926,231.394 373,238.5C 382.796,232.987 390.129,235.321 395,245.5C 401.451,237.014 409.951,233.848 420.5,236C 432.766,241.021 437.933,250.188 436,263.5C 433.501,279.169 424.334,286.335 408.5,285C 402.6,283.3 398.1,279.8 395,274.5C 390.563,285.474 382.397,291.14 370.5,291.5C 370.567,289.599 370.233,287.766 369.5,286C 371.21,284.389 373.043,282.889 375,281.5C 377.548,270.591 378.048,259.591 376.5,248.5C 374.876,248.36 373.71,249.027 373,250.5C 372.667,260.833 372.333,271.167 372,281.5C 365.587,287.118 359.587,286.784 354,280.5C 353.667,279.167 353.333,277.833 353,276.5C 348.48,286.677 340.647,291.677 329.5,291.5C 329.61,288.941 328.944,286.608 327.5,284.5C 320.514,287.223 315.681,285.223 313,278.5C 311.259,283.706 307.592,286.039 302,285.5C 298.913,285.096 296.246,283.763 294,281.5C 286.233,287.344 279.566,286.344 274,278.5C 273.667,268.5 273.333,258.5 273,248.5C 272.333,249.167 271.667,249.833 271,250.5C 270.667,260.833 270.333,271.167 270,281.5C 265.376,285.908 260.21,286.574 254.5,283.5C 253.416,282.335 252.583,281.002 252,279.5C 251.667,269.167 251.333,258.833 251,248.5C 250.333,249.167 249.667,249.833 249,250.5C 248.667,260.5 248.333,270.5 248,280.5C 245.972,284.134 242.806,285.8 238.5,285.5C 235.35,285.033 232.35,284.033 229.5,282.5C 222.763,286.942 216.596,286.275 211,280.5C 201.968,287.851 194.134,286.851 187.5,277.5C 181.109,285.02 173.109,287.187 163.5,284C 161.833,282.833 160.167,281.667 158.5,280.5C 150.091,285.611 141.424,286.278 132.5,282.5C 131.718,284.329 132.384,285.829 134.5,287C 136.464,287.624 138.131,287.124 139.5,285.5C 141.104,287.446 142.437,289.612 143.5,292C 140.743,294.712 137.409,296.379 133.5,297C 125.191,299.251 118.357,297.085 113,290.5C 107.815,281.293 102.815,271.959 98,262.5C 97.871,268.914 97.2043,275.247 96,281.5C 90.569,286.305 84.9024,286.639 79,282.5C 78.3333,281.167 77.6667,279.833 77,278.5C 76.1895,267.453 76.3561,256.453 77.5,245.5C 77.1667,245.167 76.8333,244.833 76.5,244.5C 71.1744,249.46 65.5077,249.793 59.5,245.5C 53.1341,235.41 55.1341,227.243 65.5,221C 68.3634,219.601 71.3634,218.601 74.5,218C 84.1261,216.547 93.7928,216.214 103.5,217C 117.986,219.823 123.486,228.323 120,242.5C 118.414,245.919 116.248,248.919 113.5,251.5C 116.254,256.008 118.754,260.674 121,265.5C 120.084,251.382 126.25,241.549 139.5,236C 146.52,234.621 153.02,235.788 159,239.5C 165.286,235.673 172.119,234.507 179.5,236C 181.333,237.167 183.167,238.333 185,239.5C 190.791,234.82 196.958,234.32 203.5,238C 204.211,239.255 205.044,240.421 206,241.5C 212.202,234.755 219.202,233.755 227,238.5C 234.098,234.235 240.931,234.568 247.5,239.5C 252.228,235.789 257.562,234.622 263.5,236C 265.624,237.122 267.457,238.622 269,240.5C 275.902,234.502 282.902,234.168 290,239.5C 291.918,238.458 293.751,237.292 295.5,236C 289.831,227.173 292.164,222.007 302.5,220.5C 310.292,221.389 313.125,225.723 311,233.5C 307.876,235.347 307.876,237.013 311,238.5C 317.751,234.226 324.251,234.559 330.5,239.5C 336.395,234.718 342.728,234.218 349.5,238C 351.041,239.579 352.208,241.413 353,243.5C 353.667,237.5 353.667,231.5 353,225.5C 352.586,225.957 352.086,226.291 351.5,226.5C 349.959,224.796 348.625,222.963 347.5,221C 350.132,217.531 353.465,215.031 357.5,213.5 Z"/></g>
<g><path style="opacity:0.993" fill="#de3451" d="M 80.5,219.5 C 88.1739,219.334 95.8406,219.5 103.5,220C 115.365,222.533 119.865,229.7 117,241.5C 115.293,246.041 112.126,249.041 107.5,250.5C 109.895,252.944 112.062,255.61 114,258.5C 119.08,268.327 124.413,277.994 130,287.5C 132.674,289.871 135.841,291.037 139.5,291C 132.685,295.115 125.685,295.448 118.5,292C 116.641,290.442 115.141,288.609 114,286.5C 107.786,274.071 101.619,261.738 95.5,249.5C 98.1569,249.838 100.49,249.171 102.5,247.5C 106.833,239.367 106.5,231.534 101.5,224C 98.4466,221.797 95.9466,222.297 94,225.5C 93.6667,243.5 93.3333,261.5 93,279.5C 88.9247,283.41 84.9247,283.41 81,279.5C 80.6667,261.5 80.3333,243.5 80,225.5C 72.3247,223.255 66.8247,225.755 63.5,233C 64.3366,234.011 64.67,235.178 64.5,236.5C 67.2903,236.778 69.7903,236.111 72,234.5C 74.3647,236.651 75.0314,239.317 74,242.5C 69.0462,246.677 64.3796,246.343 60,241.5C 57.6958,233.85 59.8625,228.017 66.5,224C 71.1271,221.956 75.7938,220.456 80.5,219.5 Z"/></g>
<g><path style="opacity:0.998" fill="#dd3451" d="M 298.5,223.5 C 305.587,221.923 308.753,224.59 308,231.5C 305.347,234.194 302.18,235.027 298.5,234C 294.565,230.504 294.565,227.004 298.5,223.5 Z"/></g>
<g><path style="opacity:0.163" fill="#f5fbf6" d="M 96.5,226.5 C 101.03,227.354 103.03,230.188 102.5,235C 102.372,238.677 101.539,242.177 100,245.5C 98.9887,246.337 97.8221,246.67 96.5,246.5C 96.5,239.833 96.5,233.167 96.5,226.5 Z"/></g>
<g><path style="opacity:0.079" fill="#fdfefd" d="M 72.5,227.5 C 73.8333,227.5 75.1667,227.5 76.5,227.5C 76.6621,229.527 76.4955,231.527 76,233.5C 75.5,233 75,232.5 74.5,232C 72.0049,231.843 69.6716,231.676 67.5,231.5C 69.0147,229.918 70.6814,228.584 72.5,227.5 Z"/></g>
<g><path style="opacity:0.996" fill="#dd3752" d="M 183.5,243.5 C 183.5,245.167 183.5,246.833 183.5,248.5C 181.718,250.687 179.552,251.02 177,249.5C 176.37,247.097 177.203,245.263 179.5,244C 176.812,240.927 173.979,240.76 171,243.5C 170.294,245.971 170.627,248.305 172,250.5C 176,254.5 180,258.5 184,262.5C 188.535,272.232 185.702,278.732 175.5,282C 168.97,282.879 163.303,281.046 158.5,276.5C 147.64,285.111 137.474,284.444 128,274.5C 120.283,258.31 124.45,246.477 140.5,239C 146.639,237.549 152.139,238.716 157,242.5C 157.667,245.167 157.667,247.833 157,250.5C 150.917,254.459 144.751,258.292 138.5,262C 138.564,271.726 143.564,276.393 153.5,276C 155.664,275.086 157.664,273.919 159.5,272.5C 163.113,278.296 167.613,278.962 173,274.5C 173.667,272.833 173.667,271.167 173,269.5C 167.939,264.373 163.606,258.707 160,252.5C 158.555,243.273 162.555,238.606 172,238.5C 176.795,238.152 180.629,239.818 183.5,243.5 Z"/></g>
<g><path style="opacity:0.997" fill="#dd3852" d="M 186.5,244.5 C 185.833,244.5 185.5,244.167 185.5,243.5C 190.394,237.825 195.894,237.158 202,241.5C 202.333,252.167 202.667,262.833 203,273.5C 206.448,275.988 209.448,275.322 212,271.5C 212.832,262.149 212.665,252.816 211.5,243.5C 210.391,244.59 209.391,244.59 208.5,243.5C 213.428,237.819 218.928,237.153 225,241.5C 225.5,253.162 225.667,264.829 225.5,276.5C 231.047,274.881 231.714,276.047 227.5,280C 220.493,284.405 215.327,282.905 212,275.5C 207.05,280.753 201.217,282.586 194.5,281C 191.732,279.238 190.232,276.738 190,273.5C 189.832,263.483 189.332,253.483 188.5,243.5C 187.817,243.863 187.15,244.196 186.5,244.5 Z"/></g>
<g><path style="opacity:0.998" fill="#dd3551" d="M 233.5,238.5 C 240.084,236.868 244.25,239.202 246,245.5C 250.992,239.406 257.159,237.573 264.5,240C 266.041,241.579 267.208,243.413 268,245.5C 272.391,240.383 277.891,238.217 284.5,239C 285.931,239.465 287.097,240.299 288,241.5C 289.29,252.737 289.957,264.07 290,275.5C 295.223,274.799 295.723,276.299 291.5,280C 286.762,283.367 282.262,283.201 278,279.5C 277.667,268.5 277.333,257.5 277,246.5C 273.17,244.74 270.17,245.74 268,249.5C 267.667,259.833 267.333,270.167 267,280.5C 262.701,283.438 258.701,283.105 255,279.5C 254.5,268.172 254.333,256.838 254.5,245.5C 250.727,244.822 247.894,246.156 246,249.5C 245.667,259.5 245.333,269.5 245,279.5C 241.075,283.41 237.075,283.41 233,279.5C 232.667,267.5 232.333,255.5 232,243.5C 230.467,243.056 228.967,242.723 227.5,242.5C 229.565,241.143 231.565,239.81 233.5,238.5 Z"/></g>
<g><path style="opacity:0.997" fill="#dd3551" d="M 297.5,238.5 C 300.518,238.335 303.518,238.502 306.5,239C 307.333,239.833 308.167,240.667 309,241.5C 309.667,254.167 309.667,266.833 309,279.5C 304.925,283.41 300.925,283.41 297,279.5C 296.667,267.5 296.333,255.5 296,243.5C 294.467,243.056 292.967,242.723 291.5,242.5C 293.565,241.143 295.565,239.81 297.5,238.5 Z"/></g>
<g><path style="opacity:0.997" fill="#dd3752" d="M 316.5,238.5 C 319.978,238.184 323.312,238.684 326.5,240C 328.004,241.491 328.837,243.324 329,245.5C 335.469,237.189 342.469,236.522 350,243.5C 353.764,255.751 353.097,267.751 348,279.5C 344.11,285.026 338.944,287.693 332.5,287.5C 336.852,283.983 339.019,279.317 339,273.5C 339.667,265.5 339.667,257.5 339,249.5C 335.667,244.167 332.333,244.167 329,249.5C 328.667,259.833 328.333,270.167 328,280.5C 323.736,283.345 319.736,283.012 316,279.5C 315.667,267.5 315.333,255.5 315,243.5C 313.575,242.788 312.075,242.621 310.5,243C 312.389,241.236 314.389,239.736 316.5,238.5 Z"/></g>
<g><path style="opacity:0.996" fill="#dd3551" d="M 356.5,217.5 C 359.85,217.335 363.183,217.502 366.5,218C 367.667,218.5 368.5,219.333 369,220.5C 369.333,228.833 369.667,237.167 370,245.5C 374.516,239.145 380.349,237.312 387.5,240C 392.125,245.418 394.125,251.751 393.5,259C 394.318,269.348 390.985,278.015 383.5,285C 380.062,287.437 376.395,288.27 372.5,287.5C 373.914,286.376 375.414,285.376 377,284.5C 378.827,280.719 379.827,276.719 380,272.5C 380.667,265.167 380.667,257.833 380,250.5C 379.252,246.086 376.752,244.586 372.5,246C 371.299,246.903 370.465,248.069 370,249.5C 369.667,259.5 369.333,269.5 369,279.5C 365,283.5 361,283.5 357,279.5C 356.667,260.5 356.333,241.5 356,222.5C 354.601,221.773 353.101,221.273 351.5,221C 353.233,219.811 354.9,218.644 356.5,217.5 Z"/></g>
<g><path style="opacity:0.999" fill="#dd3551" d="M 408.5,238.5 C 425.913,237.746 434.079,246.08 433,263.5C 430.698,276.811 422.865,282.977 409.5,282C 397.53,276.843 392.696,267.677 395,254.5C 396.831,246.842 401.331,241.508 408.5,238.5 Z"/></g>
<g><path style="opacity:0.466" fill="#b0d6b2" d="M 141.5,242.5 C 145.585,242.925 147.585,245.258 147.5,249.5C 147.167,250.833 146.833,252.167 146.5,253.5C 143.749,255.293 140.916,256.959 138,258.5C 136.622,252.53 137.789,247.196 141.5,242.5 Z"/></g>
<g><path style="opacity:0.954" fill="#b5d5b4" d="M 412.5,242.5 C 417.004,243.11 419.504,245.777 420,250.5C 420.95,258.974 420.283,267.307 418,275.5C 415.333,278.167 412.667,278.167 410,275.5C 407.552,267.344 406.886,259.01 408,250.5C 408.754,247.316 410.254,244.649 412.5,242.5 Z"/></g>
<g><path style="opacity:0.843" fill="#c87f7d" d="M 183.5,243.5 C 184.167,243.5 184.833,243.5 185.5,243.5C 185.5,244.167 185.833,244.5 186.5,244.5C 185.341,245.74 184.341,247.074 183.5,248.5C 183.5,246.833 183.5,245.167 183.5,243.5 Z"/></g>
<g><path style="opacity:0.086" fill="#f7fcf7" d="M 142.5,245.5 C 144.441,247.011 144.941,249.011 144,251.5C 142.817,252.731 141.651,252.731 140.5,251.5C 141.372,249.55 142.039,247.55 142.5,245.5 Z"/></g>
<g><path style="opacity:0.02" fill="#f4faf5" d="M 292.5,245.5 C 293.825,249.445 294.492,253.778 294.5,258.5C 294.641,263.34 294.141,268.007 293,272.5C 292.5,263.506 292.334,254.506 292.5,245.5 Z"/></g>
<g><path style="opacity:0.828" fill="#fdfdfd" d="M 412.5,246.5 C 413.5,246.5 414.5,246.5 415.5,246.5C 416.569,254.465 416.736,262.465 416,270.5C 415.19,275.046 413.857,275.38 412,271.5C 411.227,263.118 411.394,254.785 412.5,246.5 Z"/></g>
<g><path style="opacity:0.043" fill="#fdfefd" d="M 206.5,248.5 C 207.15,248.804 207.817,249.137 208.5,249.5C 209.664,256.476 209.831,263.476 209,270.5C 208.586,270.957 208.086,271.291 207.5,271.5C 206.503,263.862 206.169,256.196 206.5,248.5 Z"/></g>
<g><path style="opacity:0.02" fill="#eff8f1" d="M 228.5,245.5 C 229.826,249.614 230.493,254.114 230.5,259C 230.167,263.5 229.833,268 229.5,272.5C 228.502,263.525 228.168,254.525 228.5,245.5 Z"/></g>
<g><path style="opacity:0.144" fill="#fbfdfb" d="M 333.5,248.5 C 334.931,248.881 335.764,249.881 336,251.5C 336.667,259.167 336.667,266.833 336,274.5C 336.121,278.599 334.455,281.599 331,283.5C 330.5,283.333 330,283.167 329.5,283C 330.701,282.097 331.535,280.931 332,279.5C 332.191,269.09 332.691,258.757 333.5,248.5 Z"/></g>
<g><path style="opacity:0.091" fill="#fefffe" d="M 185.5,250.5 C 186.641,253.64 186.808,256.973 186,260.5C 184.542,258.04 182.709,255.873 180.5,254C 182.881,253.777 184.547,252.61 185.5,250.5 Z"/></g>
<g><path style="opacity:0.098" fill="#f9fcfa" d="M 156.5,254.5 C 160.76,259.936 165.26,265.269 170,270.5C 170.521,273.118 169.354,274.451 166.5,274.5C 164.512,272.184 162.178,270.184 159.5,268.5C 153.048,275.453 147.215,275.12 142,267.5C 141.333,266.167 141.333,264.833 142,263.5C 146.981,260.6 151.815,257.6 156.5,254.5 Z"/></g>
</svg>
